# xmcd
#
# Track frame offsets:
#	150
#	16939
#	35518
#	52576
#	62239
#	76482
#	91649
#	105874
#	123015
#	132767
#	143782
#	162500
#	185432
#	208816
#	229985
#	239540
#	252942
#
# Disc length: 3658 seconds
#
# Revision: 0
# Processed by: cddbd v1.5.1PL2 Copyright (c) Steve Scherf et al.
# Submitted via: dBpowerAMP V4.0
#
DISCID=d90e4811
DTITLE=Howlin Wolf - Blues Masters
DYEAR=1900
DGENRE=Blues
TTITLE0=Shek it for me
TTITLE1=Love me
TTITLE2=Dust my broom
TTITLE3=Look at here baby
TTITLE4=Decoration day
TTITLE5=Sweet woman
TTITLE6=Rockin the blues
TTITLE7=All my life
TTITLE8=Coma bak Home
TTITLE9=Highway man
TTITLE10=Howlin for my darlin
TTITLE11=Little red rooster
TTITLE12=Evil
TTITLE13=Blind love
TTITLE14=Smile at me
TTITLE15=My baby walked of
TTITLE16=Goin down slowly
EXTD=
EXTT0=
EXTT1=
EXTT2=
EXTT3=
EXTT4=
EXTT5=
EXTT6=
EXTT7=
EXTT8=
EXTT9=
EXTT10=
EXTT11=
EXTT12=
EXTT13=
EXTT14=
EXTT15=
EXTT16=
PLAYORDER=
